<mxfile host="app.diagrams.net" modified="2022-06-21T03:01:20.064Z" agent="5.0 (Macintosh; Intel Mac OS X 10_15_7) AppleWebKit/537.36 (KHTML, like Gecko) Chrome/102.0.5005.61 Safari/537.36" etag="YBHY8ckw0DPBUUWZuea4" version="16.5.2" type="github">
  <diagram id="Z3vnsa2YV4EkZANI4L7h" name="Page-1">
    <mxGraphModel dx="1238" dy="558" grid="0" gridSize="10" guides="1" tooltips="1" connect="1" arrows="1" fold="1" page="1" pageScale="1" pageWidth="1169" pageHeight="827" math="0" shadow="0">
      <root>
        <mxCell id="0" />
        <mxCell id="1" parent="0" />
        <mxCell id="H0h6-h-lruUwFE3LSSJ4-1" value="CD" style="fillColor=none;strokeColor=#E6E6E6;dashed=1;verticalAlign=top;fontStyle=0;fontColor=#147EBA;rounded=0;strokeWidth=2;" vertex="1" parent="1">
          <mxGeometry x="80" y="40" width="240" height="487" as="geometry" />
        </mxCell>
        <mxCell id="H0h6-h-lruUwFE3LSSJ4-3" value="CX" style="fillColor=none;strokeColor=#E6E6E6;dashed=1;verticalAlign=top;fontStyle=0;fontColor=#147EBA;rounded=0;strokeWidth=2;" vertex="1" parent="1">
          <mxGeometry x="640" y="40" width="240" height="486" as="geometry" />
        </mxCell>
        <mxCell id="H0h6-h-lruUwFE3LSSJ4-5" value="AWS CL Architecture" style="points=[[0,0],[0.25,0],[0.5,0],[0.75,0],[1,0],[1,0.25],[1,0.5],[1,0.75],[1,1],[0.75,1],[0.5,1],[0.25,1],[0,1],[0,0.75],[0,0.5],[0,0.25]];outlineConnect=0;gradientColor=none;html=1;whiteSpace=wrap;fontSize=12;fontStyle=0;container=1;pointerEvents=0;collapsible=0;recursiveResize=0;shape=mxgraph.aws4.group;grIcon=mxgraph.aws4.group_aws_cloud_alt;strokeColor=#232F3E;fillColor=none;verticalAlign=top;align=left;spacingLeft=30;fontColor=#232F3E;dashed=0;rounded=0;" vertex="1" parent="1">
          <mxGeometry x="380" y="85" width="200" height="280" as="geometry" />
        </mxCell>
        <mxCell id="H0h6-h-lruUwFE3LSSJ4-14" value="CD Platform DB" style="sketch=0;outlineConnect=0;fontColor=#232F3E;gradientColor=none;fillColor=#2E27AD;strokeColor=none;dashed=0;verticalLabelPosition=bottom;verticalAlign=top;align=center;html=1;fontSize=12;fontStyle=0;aspect=fixed;pointerEvents=1;shape=mxgraph.aws4.rds_mysql_instance;rounded=0;" vertex="1" parent="H0h6-h-lruUwFE3LSSJ4-5">
          <mxGeometry x="10" y="41" width="78" height="78" as="geometry" />
        </mxCell>
        <mxCell id="H0h6-h-lruUwFE3LSSJ4-17" value="CL DMP" style="sketch=0;outlineConnect=0;fontColor=#232F3E;gradientColor=none;fillColor=#2E27AD;strokeColor=none;dashed=0;verticalLabelPosition=bottom;verticalAlign=top;align=center;html=1;fontSize=12;fontStyle=0;aspect=fixed;pointerEvents=1;shape=mxgraph.aws4.dense_compute_node;rounded=0;" vertex="1" parent="H0h6-h-lruUwFE3LSSJ4-5">
          <mxGeometry x="100" y="40" width="78" height="78" as="geometry" />
        </mxCell>
        <mxCell id="H0h6-h-lruUwFE3LSSJ4-35" value="API &lt;br&gt;Services" style="rounded=1;whiteSpace=wrap;html=1;shadow=0;glass=0;sketch=0;fontFamily=Helvetica;fontSize=12;fontColor=default;startSize=23;strokeColor=default;strokeWidth=2;fillColor=default;" vertex="1" parent="H0h6-h-lruUwFE3LSSJ4-5">
          <mxGeometry x="10" y="170" width="60" height="40" as="geometry" />
        </mxCell>
        <mxCell id="H0h6-h-lruUwFE3LSSJ4-38" value="SaaS&lt;br&gt;Services" style="rounded=1;whiteSpace=wrap;html=1;shadow=0;glass=0;sketch=0;fontFamily=Helvetica;fontSize=12;fontColor=default;startSize=23;strokeColor=default;strokeWidth=2;fillColor=default;" vertex="1" parent="H0h6-h-lruUwFE3LSSJ4-5">
          <mxGeometry x="110" y="170" width="60" height="40" as="geometry" />
        </mxCell>
        <mxCell id="H0h6-h-lruUwFE3LSSJ4-41" value="API &lt;br&gt;Services" style="rounded=1;whiteSpace=wrap;html=1;shadow=0;glass=0;sketch=0;fontFamily=Helvetica;fontSize=12;fontColor=default;startSize=23;strokeColor=default;strokeWidth=2;fillColor=default;" vertex="1" parent="H0h6-h-lruUwFE3LSSJ4-5">
          <mxGeometry x="20" y="180" width="60" height="40" as="geometry" />
        </mxCell>
        <mxCell id="H0h6-h-lruUwFE3LSSJ4-42" value="API &lt;br&gt;Services" style="rounded=1;whiteSpace=wrap;html=1;shadow=0;glass=0;sketch=0;fontFamily=Helvetica;fontSize=12;fontColor=default;startSize=23;strokeColor=default;strokeWidth=2;fillColor=default;" vertex="1" parent="H0h6-h-lruUwFE3LSSJ4-5">
          <mxGeometry x="30" y="190" width="60" height="40" as="geometry" />
        </mxCell>
        <mxCell id="H0h6-h-lruUwFE3LSSJ4-43" value="SaaS&lt;br&gt;Services" style="rounded=1;whiteSpace=wrap;html=1;shadow=0;glass=0;sketch=0;fontFamily=Helvetica;fontSize=12;fontColor=default;startSize=23;strokeColor=default;strokeWidth=2;fillColor=default;" vertex="1" parent="H0h6-h-lruUwFE3LSSJ4-5">
          <mxGeometry x="120" y="180" width="60" height="40" as="geometry" />
        </mxCell>
        <mxCell id="H0h6-h-lruUwFE3LSSJ4-44" value="SaaS&lt;br&gt;Services" style="rounded=1;whiteSpace=wrap;html=1;shadow=0;glass=0;sketch=0;fontFamily=Helvetica;fontSize=12;fontColor=default;startSize=23;strokeColor=default;strokeWidth=2;fillColor=default;" vertex="1" parent="H0h6-h-lruUwFE3LSSJ4-5">
          <mxGeometry x="130" y="190" width="60" height="40" as="geometry" />
        </mxCell>
        <mxCell id="H0h6-h-lruUwFE3LSSJ4-2" value="CL" style="fillColor=none;strokeColor=#E6E6E6;dashed=1;verticalAlign=top;fontStyle=0;fontColor=#147EBA;rounded=0;strokeWidth=2;" vertex="1" parent="1">
          <mxGeometry x="360" y="40" width="240" height="486" as="geometry" />
        </mxCell>
        <mxCell id="H0h6-h-lruUwFE3LSSJ4-7" value="AWS CX Architecture" style="points=[[0,0],[0.25,0],[0.5,0],[0.75,0],[1,0],[1,0.25],[1,0.5],[1,0.75],[1,1],[0.75,1],[0.5,1],[0.25,1],[0,1],[0,0.75],[0,0.5],[0,0.25]];outlineConnect=0;gradientColor=none;html=1;whiteSpace=wrap;fontSize=12;fontStyle=0;container=1;pointerEvents=0;collapsible=0;recursiveResize=0;shape=mxgraph.aws4.group;grIcon=mxgraph.aws4.group_aws_cloud_alt;strokeColor=#232F3E;fillColor=none;verticalAlign=top;align=left;spacingLeft=30;fontColor=#232F3E;dashed=0;rounded=0;" vertex="1" parent="1">
          <mxGeometry x="660" y="85" width="200" height="280" as="geometry" />
        </mxCell>
        <mxCell id="H0h6-h-lruUwFE3LSSJ4-11" value="CX CRM DB" style="sketch=0;outlineConnect=0;fontColor=#232F3E;gradientColor=none;fillColor=#2E27AD;strokeColor=none;dashed=0;verticalLabelPosition=bottom;verticalAlign=top;align=center;html=1;fontSize=12;fontStyle=0;aspect=fixed;pointerEvents=1;shape=mxgraph.aws4.rds_mysql_instance;rounded=0;" vertex="1" parent="H0h6-h-lruUwFE3LSSJ4-7">
          <mxGeometry x="15" y="41" width="78" height="78" as="geometry" />
        </mxCell>
        <mxCell id="H0h6-h-lruUwFE3LSSJ4-12" value="CX ERP DB" style="sketch=0;outlineConnect=0;fontColor=#232F3E;gradientColor=none;fillColor=#2E27AD;strokeColor=none;dashed=0;verticalLabelPosition=bottom;verticalAlign=top;align=center;html=1;fontSize=12;fontStyle=0;aspect=fixed;pointerEvents=1;shape=mxgraph.aws4.rds_mysql_instance;rounded=0;" vertex="1" parent="H0h6-h-lruUwFE3LSSJ4-7">
          <mxGeometry x="105" y="41" width="78" height="78" as="geometry" />
        </mxCell>
        <mxCell id="H0h6-h-lruUwFE3LSSJ4-19" value="VIP" style="verticalLabelPosition=bottom;verticalAlign=top;html=1;shadow=0;dashed=0;strokeWidth=1;shape=mxgraph.android.phone2;strokeColor=#c0c0c0;rounded=0;" vertex="1" parent="H0h6-h-lruUwFE3LSSJ4-7">
          <mxGeometry x="139.37" y="170" width="40" height="70" as="geometry" />
        </mxCell>
        <mxCell id="H0h6-h-lruUwFE3LSSJ4-20" value="PRIME" style="verticalLabelPosition=bottom;verticalAlign=top;html=1;shadow=0;dashed=0;strokeWidth=1;shape=mxgraph.android.phone2;strokeColor=#c0c0c0;rounded=0;" vertex="1" parent="H0h6-h-lruUwFE3LSSJ4-7">
          <mxGeometry x="90" y="170" width="39.37" height="70" as="geometry" />
        </mxCell>
        <mxCell id="H0h6-h-lruUwFE3LSSJ4-21" value="CRM" style="aspect=fixed;html=1;points=[];align=center;image;fontSize=12;image=img/lib/azure2/general/Browser.svg;rounded=0;strokeWidth=2;" vertex="1" parent="H0h6-h-lruUwFE3LSSJ4-7">
          <mxGeometry x="10" y="170" width="70" height="56" as="geometry" />
        </mxCell>
        <mxCell id="H0h6-h-lruUwFE3LSSJ4-8" value="AWS CD Architecture" style="points=[[0,0],[0.25,0],[0.5,0],[0.75,0],[1,0],[1,0.25],[1,0.5],[1,0.75],[1,1],[0.75,1],[0.5,1],[0.25,1],[0,1],[0,0.75],[0,0.5],[0,0.25]];outlineConnect=0;gradientColor=none;html=1;whiteSpace=wrap;fontSize=12;fontStyle=0;container=1;pointerEvents=0;collapsible=0;recursiveResize=0;shape=mxgraph.aws4.group;grIcon=mxgraph.aws4.group_aws_cloud_alt;strokeColor=#232F3E;fillColor=none;verticalAlign=top;align=left;spacingLeft=30;fontColor=#232F3E;dashed=0;rounded=0;" vertex="1" parent="1">
          <mxGeometry x="100" y="85" width="200" height="280" as="geometry" />
        </mxCell>
        <mxCell id="H0h6-h-lruUwFE3LSSJ4-18" value="DRIVER" style="verticalLabelPosition=bottom;verticalAlign=top;html=1;shadow=0;dashed=0;strokeWidth=1;shape=mxgraph.android.phone2;strokeColor=#c0c0c0;rounded=0;" vertex="1" parent="H0h6-h-lruUwFE3LSSJ4-8">
          <mxGeometry x="30" y="170" width="48.75" height="90" as="geometry" />
        </mxCell>
        <mxCell id="H0h6-h-lruUwFE3LSSJ4-48" value="" style="group" vertex="1" connectable="0" parent="1">
          <mxGeometry x="100" y="385" width="200" height="124" as="geometry" />
        </mxCell>
        <mxCell id="H0h6-h-lruUwFE3LSSJ4-45" value="CD Repository" style="fillColor=none;strokeColor=#DD3522;verticalAlign=top;fontStyle=0;fontColor=#DD3522;rounded=0;shadow=0;glass=0;sketch=0;fontFamily=Helvetica;fontSize=12;startSize=23;align=left;spacingLeft=30;" vertex="1" parent="H0h6-h-lruUwFE3LSSJ4-48">
          <mxGeometry width="200" height="120" as="geometry" />
        </mxCell>
        <mxCell id="H0h6-h-lruUwFE3LSSJ4-47" value="" style="shape=image;html=1;verticalAlign=top;verticalLabelPosition=bottom;labelBackgroundColor=#ffffff;imageAspect=0;aspect=fixed;image=https://cdn0.iconfinder.com/data/icons/social-network-7/50/29-128.png;rounded=0;shadow=0;glass=0;sketch=0;fontFamily=Helvetica;fontSize=12;fontColor=default;startSize=23;strokeColor=default;strokeWidth=2;fillColor=default;" vertex="1" parent="H0h6-h-lruUwFE3LSSJ4-48">
          <mxGeometry width="24" height="24" as="geometry" />
        </mxCell>
        <mxCell id="H0h6-h-lruUwFE3LSSJ4-57" value="" style="strokeColor=#dddddd;shadow=1;strokeWidth=1;rounded=1;absoluteArcSize=1;arcSize=2;glass=0;sketch=0;fontFamily=Helvetica;fontSize=12;fontColor=#DD3522;startSize=23;fillColor=none;" vertex="1" parent="H0h6-h-lruUwFE3LSSJ4-48">
          <mxGeometry x="30" y="24" width="140" height="40" as="geometry" />
        </mxCell>
        <mxCell id="H0h6-h-lruUwFE3LSSJ4-58" value="Front Source" style="sketch=0;dashed=0;connectable=0;html=1;fillColor=#5184F3;strokeColor=none;shape=mxgraph.gcp2.hexIcon;prIcon=placeholder;part=1;labelPosition=right;verticalLabelPosition=middle;align=left;verticalAlign=middle;spacingLeft=5;fontColor=#999999;fontSize=12;rounded=0;shadow=0;glass=0;fontFamily=Helvetica;startSize=23;" vertex="1" parent="H0h6-h-lruUwFE3LSSJ4-57">
          <mxGeometry y="0.5" width="44" height="39" relative="1" as="geometry">
            <mxPoint x="5" y="-19.5" as="offset" />
          </mxGeometry>
        </mxCell>
        <mxCell id="H0h6-h-lruUwFE3LSSJ4-59" value="" style="strokeColor=#dddddd;shadow=1;strokeWidth=1;rounded=1;absoluteArcSize=1;arcSize=2;glass=0;sketch=0;fontFamily=Helvetica;fontSize=12;fontColor=#DD3522;startSize=23;fillColor=none;" vertex="1" parent="H0h6-h-lruUwFE3LSSJ4-48">
          <mxGeometry x="30" y="70" width="140" height="40" as="geometry" />
        </mxCell>
        <mxCell id="H0h6-h-lruUwFE3LSSJ4-60" value="Back Source" style="sketch=0;dashed=0;connectable=0;html=1;fillColor=#5184F3;strokeColor=none;shape=mxgraph.gcp2.hexIcon;prIcon=placeholder;part=1;labelPosition=right;verticalLabelPosition=middle;align=left;verticalAlign=middle;spacingLeft=5;fontColor=#999999;fontSize=12;rounded=0;shadow=0;glass=0;fontFamily=Helvetica;startSize=23;" vertex="1" parent="H0h6-h-lruUwFE3LSSJ4-59">
          <mxGeometry y="0.5" width="44" height="39" relative="1" as="geometry">
            <mxPoint x="5" y="-19.5" as="offset" />
          </mxGeometry>
        </mxCell>
        <mxCell id="H0h6-h-lruUwFE3LSSJ4-49" value="" style="group" vertex="1" connectable="0" parent="1">
          <mxGeometry x="380" y="385" width="200" height="120" as="geometry" />
        </mxCell>
        <mxCell id="H0h6-h-lruUwFE3LSSJ4-50" value="CL GIT Repository" style="fillColor=none;strokeColor=#DD3522;verticalAlign=top;fontStyle=0;fontColor=#DD3522;rounded=0;shadow=0;glass=0;sketch=0;fontFamily=Helvetica;fontSize=12;startSize=23;align=left;spacingLeft=30;" vertex="1" parent="H0h6-h-lruUwFE3LSSJ4-49">
          <mxGeometry width="200" height="120" as="geometry" />
        </mxCell>
        <mxCell id="H0h6-h-lruUwFE3LSSJ4-51" value="" style="shape=image;html=1;verticalAlign=top;verticalLabelPosition=bottom;labelBackgroundColor=#ffffff;imageAspect=0;aspect=fixed;image=https://cdn0.iconfinder.com/data/icons/social-network-7/50/29-128.png;rounded=0;shadow=0;glass=0;sketch=0;fontFamily=Helvetica;fontSize=12;fontColor=default;startSize=23;strokeColor=default;strokeWidth=2;fillColor=default;" vertex="1" parent="H0h6-h-lruUwFE3LSSJ4-49">
          <mxGeometry width="22.799999999999997" height="22.799999999999997" as="geometry" />
        </mxCell>
        <mxCell id="H0h6-h-lruUwFE3LSSJ4-65" value="" style="strokeColor=#dddddd;shadow=1;strokeWidth=1;rounded=1;absoluteArcSize=1;arcSize=2;glass=0;sketch=0;fontFamily=Helvetica;fontSize=12;fontColor=#DD3522;startSize=23;fillColor=none;" vertex="1" parent="H0h6-h-lruUwFE3LSSJ4-49">
          <mxGeometry x="29.999999999999943" y="24.799999999999955" width="140" height="40" as="geometry" />
        </mxCell>
        <mxCell id="H0h6-h-lruUwFE3LSSJ4-66" value="Repo" style="sketch=0;dashed=0;connectable=0;html=1;fillColor=#5184F3;strokeColor=none;shape=mxgraph.gcp2.hexIcon;prIcon=placeholder;part=1;labelPosition=right;verticalLabelPosition=middle;align=left;verticalAlign=middle;spacingLeft=5;fontColor=#999999;fontSize=12;rounded=0;shadow=0;glass=0;fontFamily=Helvetica;startSize=23;" vertex="1" parent="H0h6-h-lruUwFE3LSSJ4-65">
          <mxGeometry y="0.5" width="44" height="39" relative="1" as="geometry">
            <mxPoint x="5" y="-19.5" as="offset" />
          </mxGeometry>
        </mxCell>
        <mxCell id="H0h6-h-lruUwFE3LSSJ4-52" value="" style="group" vertex="1" connectable="0" parent="1">
          <mxGeometry x="660" y="385" width="200" height="120" as="geometry" />
        </mxCell>
        <mxCell id="H0h6-h-lruUwFE3LSSJ4-53" value="CL GITLAB Repository" style="fillColor=none;strokeColor=#DD3522;verticalAlign=top;fontStyle=0;fontColor=#DD3522;rounded=0;shadow=0;glass=0;sketch=0;fontFamily=Helvetica;fontSize=12;startSize=23;align=left;spacingLeft=30;" vertex="1" parent="H0h6-h-lruUwFE3LSSJ4-52">
          <mxGeometry width="200" height="120" as="geometry" />
        </mxCell>
        <mxCell id="H0h6-h-lruUwFE3LSSJ4-54" value="" style="shape=image;html=1;verticalAlign=top;verticalLabelPosition=bottom;labelBackgroundColor=#ffffff;imageAspect=0;aspect=fixed;image=https://cdn0.iconfinder.com/data/icons/social-network-7/50/29-128.png;rounded=0;shadow=0;glass=0;sketch=0;fontFamily=Helvetica;fontSize=12;fontColor=default;startSize=23;strokeColor=default;strokeWidth=2;fillColor=default;" vertex="1" parent="H0h6-h-lruUwFE3LSSJ4-52">
          <mxGeometry width="21.659999999999997" height="21.659999999999997" as="geometry" />
        </mxCell>
        <mxCell id="H0h6-h-lruUwFE3LSSJ4-61" value="" style="strokeColor=#dddddd;shadow=1;strokeWidth=1;rounded=1;absoluteArcSize=1;arcSize=2;glass=0;sketch=0;fontFamily=Helvetica;fontSize=12;fontColor=#DD3522;startSize=23;fillColor=none;" vertex="1" parent="H0h6-h-lruUwFE3LSSJ4-52">
          <mxGeometry x="30.659999999999968" y="25" width="140" height="40" as="geometry" />
        </mxCell>
        <mxCell id="H0h6-h-lruUwFE3LSSJ4-62" value="Front Source" style="sketch=0;dashed=0;connectable=0;html=1;fillColor=#5184F3;strokeColor=none;shape=mxgraph.gcp2.hexIcon;prIcon=placeholder;part=1;labelPosition=right;verticalLabelPosition=middle;align=left;verticalAlign=middle;spacingLeft=5;fontColor=#999999;fontSize=12;rounded=0;shadow=0;glass=0;fontFamily=Helvetica;startSize=23;" vertex="1" parent="H0h6-h-lruUwFE3LSSJ4-61">
          <mxGeometry y="0.5" width="44" height="39" relative="1" as="geometry">
            <mxPoint x="5" y="-19.5" as="offset" />
          </mxGeometry>
        </mxCell>
        <mxCell id="H0h6-h-lruUwFE3LSSJ4-63" value="" style="strokeColor=#dddddd;shadow=1;strokeWidth=1;rounded=1;absoluteArcSize=1;arcSize=2;glass=0;sketch=0;fontFamily=Helvetica;fontSize=12;fontColor=#DD3522;startSize=23;fillColor=none;" vertex="1" parent="H0h6-h-lruUwFE3LSSJ4-52">
          <mxGeometry x="30.659999999999968" y="71" width="140" height="40" as="geometry" />
        </mxCell>
        <mxCell id="H0h6-h-lruUwFE3LSSJ4-64" value="Back Source" style="sketch=0;dashed=0;connectable=0;html=1;fillColor=#5184F3;strokeColor=none;shape=mxgraph.gcp2.hexIcon;prIcon=placeholder;part=1;labelPosition=right;verticalLabelPosition=middle;align=left;verticalAlign=middle;spacingLeft=5;fontColor=#999999;fontSize=12;rounded=0;shadow=0;glass=0;fontFamily=Helvetica;startSize=23;" vertex="1" parent="H0h6-h-lruUwFE3LSSJ4-63">
          <mxGeometry y="0.5" width="44" height="39" relative="1" as="geometry">
            <mxPoint x="5" y="-19.5" as="offset" />
          </mxGeometry>
        </mxCell>
        <mxCell id="H0h6-h-lruUwFE3LSSJ4-70" style="edgeStyle=orthogonalEdgeStyle;rounded=0;orthogonalLoop=1;jettySize=auto;html=1;fontFamily=Helvetica;fontSize=12;fontColor=#DD3522;startSize=23;dashed=1;" edge="1" parent="1" source="H0h6-h-lruUwFE3LSSJ4-18" target="H0h6-h-lruUwFE3LSSJ4-14">
          <mxGeometry relative="1" as="geometry">
            <Array as="points">
              <mxPoint x="250" y="165" />
              <mxPoint x="250" y="165" />
            </Array>
          </mxGeometry>
        </mxCell>
        <mxCell id="H0h6-h-lruUwFE3LSSJ4-72" style="edgeStyle=orthogonalEdgeStyle;rounded=0;orthogonalLoop=1;jettySize=auto;html=1;dashed=1;fontFamily=Helvetica;fontSize=12;fontColor=#DD3522;startSize=23;" edge="1" parent="1" source="H0h6-h-lruUwFE3LSSJ4-11" target="H0h6-h-lruUwFE3LSSJ4-17">
          <mxGeometry relative="1" as="geometry">
            <Array as="points">
              <mxPoint x="610" y="165" />
              <mxPoint x="610" y="164" />
            </Array>
          </mxGeometry>
        </mxCell>
        <mxCell id="H0h6-h-lruUwFE3LSSJ4-73" style="edgeStyle=orthogonalEdgeStyle;rounded=0;orthogonalLoop=1;jettySize=auto;html=1;dashed=1;fontFamily=Helvetica;fontSize=12;fontColor=#DD3522;startSize=23;" edge="1" parent="1" source="H0h6-h-lruUwFE3LSSJ4-42" target="H0h6-h-lruUwFE3LSSJ4-8">
          <mxGeometry relative="1" as="geometry">
            <mxPoint x="310" y="345" as="targetPoint" />
            <Array as="points">
              <mxPoint x="440" y="345" />
            </Array>
          </mxGeometry>
        </mxCell>
        <mxCell id="H0h6-h-lruUwFE3LSSJ4-74" style="edgeStyle=orthogonalEdgeStyle;rounded=0;orthogonalLoop=1;jettySize=auto;html=1;dashed=1;fontFamily=Helvetica;fontSize=12;fontColor=#DD3522;startSize=23;" edge="1" parent="1" source="H0h6-h-lruUwFE3LSSJ4-42" target="H0h6-h-lruUwFE3LSSJ4-7">
          <mxGeometry relative="1" as="geometry">
            <Array as="points">
              <mxPoint x="440" y="345" />
            </Array>
          </mxGeometry>
        </mxCell>
        <mxCell id="H0h6-h-lruUwFE3LSSJ4-75" style="edgeStyle=orthogonalEdgeStyle;rounded=0;orthogonalLoop=1;jettySize=auto;html=1;dashed=1;fontFamily=Helvetica;fontSize=12;fontColor=#DD3522;startSize=23;endArrow=none;endFill=0;" edge="1" parent="1" source="H0h6-h-lruUwFE3LSSJ4-44">
          <mxGeometry relative="1" as="geometry">
            <mxPoint x="540" y="345" as="targetPoint" />
            <Array as="points">
              <mxPoint x="540" y="345" />
            </Array>
          </mxGeometry>
        </mxCell>
      </root>
    </mxGraphModel>
  </diagram>
</mxfile>
